PathFileType	4	(X/Y/Z)	c:/Users/goper/Files/vsCode/490R/osim_files/C07/C07_Static.trc
DataRate	CameraRate	NumFrames	NumMarkers	Units                	OrigDataRate	OrigDataStartFrame	OrigNumFrames
250.00	250.00	8	36	mm	250.0	778	1554
                Frame#	Time	LPSIS			LASIS			LTH1			LTH2			LTH3			LTH4			LLFE			LMFE			LSH1			LSH2			LSH3			LSH4			LLMAL			LMMAL			LCAL			LMTP5			LTOE			LMTP1			RPSIS			RASIS			RTH1			RTH2			RTH3			RTH4			RLFE			RMFE			RSH1			RSH2			RSH3			RSH4			RLMAL			RMMAL			RCAL			RMTP1			RTOE			RMTP5		
		X1	Y1	Z1	X2	Y2	Z2	X3	Y3	Z3	X4	Y4	Z4	X5	Y5	Z5	X6	Y6	Z6	X7	Y7	Z7	X8	Y8	Z8	X9	Y9	Z9	X10	Y10	Z10	X11	Y11	Z11	X12	Y12	Z12	X13	Y13	Z13	X14	Y14	Z14	X15	Y15	Z15	X16	Y16	Z16	X17	Y17	Z17	X18	Y18	Z18	X19	Y19	Z19	X20	Y20	Z20	X21	Y21	Z21	X22	Y22	Z22	X23	Y23	Z23	X24	Y24	Z24	X25	Y25	Z25	X26	Y26	Z26	X27	Y27	Z27	X28	Y28	Z28	X29	Y29	Z29	X30	Y30	Z30	X31	Y31	Z31	X32	Y32	Z32	X33	Y33	Z33	X34	Y34	Z34	X35	Y35	Z35	X36	Y36	Z36

778	3.10800	-397.33105	1030.74292	363.23007	-233.88542	986.44476	281.89359	-316.34943	800.20172	218.24670	-315.77145	721.82422	215.03508	-315.46341	645.56616	223.76372	-239.26921	722.44751	243.05045	-345.70065	524.61609	240.20079	-354.04761	502.79816	361.53278	-382.59366	338.01184	215.01466	-399.69699	292.92502	225.77751	-343.86349	342.18454	229.96193	-348.02225	296.62769	234.36845	-406.08566	109.44769	258.09903	-382.50641	127.13877	332.00690	-465.45288	47.12699	301.25089	-282.01791	41.13259	226.31549	-226.40256	52.73869	282.72552	-256.59189	41.59820	333.13037	-389.14752	1032.77234	464.15305	-232.35516	976.22644	534.65637	-284.44504	829.01282	595.12659	-287.82022	749.16852	596.34045	-295.31631	667.80640	590.67908	-221.35532	744.25525	554.58618	-324.79553	496.82684	555.98389	-339.50116	501.40073	444.53540	-395.45090	322.33527	578.49896	-368.12708	273.04553	580.60529	-334.45114	321.51416	572.27979	-338.45084	276.92868	569.54376	-401.93085	97.69279	540.47626	-377.88934	105.47780	461.81216	-453.07147	45.34137	498.62473	-245.08649	39.88805	464.22519	-219.10831	51.95924	511.72937	-263.94281	36.82393	573.17670
779	3.11200	-397.32547	1030.72461	363.27237	-233.93918	986.39313	281.93558	-316.30975	800.16986	218.23486	-315.76834	721.79102	215.01810	-315.47510	645.54028	223.78378	-239.26187	722.43158	243.03963	-345.69363	524.58289	240.20753	-354.04791	502.77228	361.57730	-382.61111	337.99445	215.03410	-399.60110	292.96133	225.73080	-343.86511	342.17004	229.94685	-347.97461	296.58163	234.34743	-406.09531	109.42103	258.11893	-382.48624	127.09184	332.04904	-465.46481	47.10346	301.25125	-281.99265	41.08159	226.29410	-226.35477	52.65681	282.76163	-256.60327	41.52572	333.13696	-389.10043	1032.72449	464.20737	-232.41316	976.15546	534.70966	-284.41833	828.94733	595.17914	-287.81134	749.11761	596.39514	-295.33987	667.74554	590.78485	-221.33234	744.20746	554.55475	-324.79297	496.73367	555.94513	-339.47897	501.39139	444.54700	-395.40558	322.29584	578.51819	-368.10983	273.00854	580.64661	-334.42917	321.46976	572.27704	-338.46906	276.87274	569.58685	-401.88086	97.62756	540.50507	-377.88055	105.44662	461.83392	-453.06458	45.33376	498.65323	-245.09589	39.79443	464.26352	-219.10468	51.90186	511.74454	-263.93802	36.79374	573.19348
780	3.11600	-397.31677	1030.69373	363.27332	-233.90039	986.38550	281.89362	-316.33148	800.14728	218.26204	-315.75671	721.78033	215.02937	-315.48505	645.51312	223.77698	-239.26251	722.40930	243.03656	-345.68323	524.54376	240.21741	-354.11292	502.79224	361.61755	-382.61710	337.97852	215.02042	-399.64630	292.89114	225.73459	-343.87466	342.13586	229.94847	-347.97473	296.54050	234.33417	-406.08466	109.39133	258.11078	-382.42477	127.05434	332.05350	-465.42401	47.05977	301.24854	-281.99716	41.03223	226.34459	-226.38606	52.59750	282.74167	-256.59952	41.42581	333.12094	-389.05450	1032.70471	464.26559	-232.40404	976.12885	534.69098	-284.36212	828.91797	595.14886	-287.78772	749.07825	596.41113	-295.27887	667.65393	590.78455	-221.32481	744.18768	554.56775	-324.75388	496.65958	556.00366	-339.47775	501.37177	444.56067	-395.39343	322.26477	578.54382	-368.07764	272.97556	580.66217	-334.42859	321.43137	572.29333	-338.45032	276.81766	569.60571	-401.88562	97.58486	540.51471	-377.86053	105.42847	461.83319	-453.53592	45.52114	498.78400	-245.15050	39.70089	464.31613	-219.11539	51.84846	511.74411	-263.92456	36.75643	573.21149
781	3.12000	-397.29150	1030.67053	363.26816	-233.89920	986.36627	281.89871	-316.35068	800.12537	218.25995	-315.79083	721.77246	215.04633	-315.50391	645.50385	223.78224	-239.27725	722.38196	243.06120	-345.67313	524.52704	240.21579	-354.01562	502.75305	361.59680	-382.63058	337.94803	215.05331	-399.68378	292.91638	225.75253	-343.89703	342.09308	229.95456	-347.98737	296.52417	234.37148	-406.09946	109.37878	258.11557	-382.41031	127.03487	332.09396	-465.39389	47.02448	301.25333	-281.99557	41.01522	226.33252	-226.35765	52.49775	282.78540	-256.58096	41.31411	333.16519	-389.05304	1032.69983	464.27481	-232.38493	976.13739	534.69476	-284.46741	828.51398	595.32025	-287.79330	749.08984	596.45288	-295.26276	667.65607	590.84119	-221.34381	744.13940	554.55231	-324.73102	496.63571	556.00610	-339.48856	501.35349	444.58371	-395.38330	322.21964	578.57245	-368.06262	272.94980	580.70404	-334.40060	321.42755	572.29108	-338.44550	276.84167	569.61011	-401.85620	97.59571	540.56042	-377.86197	105.39482	461.84741	-453.53345	45.49993	498.79565	-245.16107	39.67176	464.30469	-219.10602	51.81017	511.76474	-263.92691	36.73717	573.23547
782	3.12400	-397.28537	1030.67566	363.27679	-233.89255	986.36053	281.89948	-316.38147	800.13239	218.26387	-315.79950	721.75903	215.04402	-315.49884	645.48767	223.78300	-239.29971	722.36102	243.05045	-345.71671	524.53876	240.22635	-354.04965	502.77322	361.64709	-382.62354	337.94598	215.03752	-399.73328	292.84641	225.78328	-343.85635	342.09714	229.92146	-348.04968	296.52512	234.36562	-406.09024	109.37027	258.11346	-382.37323	127.02902	332.11023	-465.41446	47.00701	301.21362	-282.00000	40.99653	226.34669	-226.32094	52.42836	282.82281	-256.58786	41.23601	333.14081	-388.96375	1032.69397	464.25473	-232.34990	976.11548	534.69769	-284.31595	828.95325	595.23053	-287.78415	749.11450	596.51477	-295.24307	667.60864	590.67841	-221.32214	744.15460	554.55676	-324.71744	496.65015	555.98291	-339.50369	501.36536	444.60178	-395.37039	322.23080	578.59851	-368.08130	272.98123	580.72400	-334.41992	321.42426	572.31744	-338.43524	276.84967	569.60718	-401.87820	97.59547	540.56085	-377.87387	105.39221	461.86206	-453.53928	45.50346	498.79449	-245.13945	39.66168	464.31036	-219.10695	51.80696	511.74097	-263.90057	36.74575	573.24042
783	3.12800	-397.30215	1030.70483	363.26016	-233.90808	986.37988	281.90875	-316.40012	800.15338	218.30360	-315.79367	721.76660	215.04607	-315.50662	645.50580	223.78552	-239.28627	722.39777	243.02295	-345.71756	524.50696	240.22571	-354.16046	502.85651	361.63129	-382.62619	337.97913	215.04131	-399.67557	292.91321	225.74811	-343.88528	342.09085	229.94214	-348.01517	296.56424	234.33931	-406.10471	109.38963	258.12878	-382.39127	127.03088	332.11307	-465.39648	47.00830	301.20816	-281.98337	40.99435	226.34673	-226.29590	52.41160	282.80191	-256.59985	41.16113	333.18323	-388.94666	1032.68726	464.31274	-232.32095	976.14197	534.72522	-284.34772	828.94049	595.23419	-287.74878	749.10864	596.52875	-295.24146	667.65686	590.73511	-221.32986	744.14471	554.56653	-324.72748	496.66010	556.02301	-339.52191	501.39502	444.62228	-395.38947	322.25104	578.60382	-368.08133	273.00381	580.71216	-334.41022	321.46207	572.33624	-338.41568	276.86942	569.57886	-401.86121	97.61594	540.56836	-377.88165	105.38882	461.86496	-453.53143	45.50910	498.81064	-245.15807	39.65707	464.33902	-219.11697	51.79947	511.74442	-263.90497	36.74643	573.23541
784	3.13200	-397.27838	1030.72388	363.24127	-233.88055	986.39331	281.88638	-316.37784	800.14984	218.29280	-315.83594	721.78772	215.06956	-315.52579	645.50208	223.80148	-239.34146	722.37640	243.06026	-345.67593	524.49365	240.23282	-354.13214	502.84692	361.62561	-382.63931	337.96100	215.06938	-399.66357	292.93939	225.75372	-343.90604	342.10220	229.95618	-348.04468	296.56091	234.36423	-406.10782	109.40749	258.14041	-382.39847	127.04520	332.09265	-465.42908	47.02742	301.18469	-281.97818	41.01093	226.33871	-226.33047	52.44329	282.79391	-256.59393	41.20009	333.10892	-388.95648	1032.72742	464.24103	-232.29488	976.19928	534.67145	-284.34885	828.97162	595.20898	-287.74911	749.11102	596.53033	-295.24866	667.67938	590.60809	-221.30315	744.17432	554.55035	-324.70157	496.67285	555.93109	-339.53638	501.40686	444.62378	-395.36612	322.25238	578.56812	-368.07767	273.00729	580.67212	-334.36533	321.53906	572.26465	-338.39734	276.92734	569.56665	-401.88199	97.65329	540.50018	-377.92456	105.41386	461.89682	-453.55859	45.50680	498.77612	-245.17210	39.68165	464.32672	-219.08768	51.84359	511.72256	-263.90695	36.78669	573.22736
785	3.13600	-397.27863	1030.75549	363.21249	-233.89612	986.41724	281.90094	-316.40891	800.17853	218.29411	-315.82681	721.79669	215.05350	-315.55508	645.54510	223.78845	-239.36424	722.38110	243.07184	-345.72794	524.53668	240.21664	-354.19812	502.88495	361.60501	-382.67960	337.99570	215.06322	-399.67212	292.96994	225.73045	-343.89612	342.17087	229.93423	-348.04330	296.60327	234.35947	-406.12628	109.41201	258.14236	-382.39319	127.08672	332.04706	-465.43649	47.04614	301.18076	-282.00043	41.06866	226.30573	-226.31900	52.54896	282.64865	-256.52148	41.40521	332.91785	-388.95575	1032.83374	464.24045	-232.24327	976.27307	534.64166	-284.35309	829.03723	595.15265	-287.75598	749.18115	596.44360	-295.25443	667.78418	590.43884	-221.27798	744.23572	554.50928	-324.67859	496.77396	555.78015	-339.56070	501.42828	444.62613	-395.37494	322.30164	578.50470	-368.13330	273.07669	580.62946	-334.34232	321.64047	572.20068	-338.37003	277.02356	569.51245	-401.85944	97.69308	540.43701	-377.88922	105.44054	461.86310	-453.57175	45.58739	498.72617	-245.09538	39.77862	464.23422	-219.02057	51.94995	511.60352	-263.90326	36.86600	573.18579
